<svg width="24" height="25" viewBox="0 0 24 25" fill="none" xmlns="http://www.w3.org/2000/svg">
<mask id="mask0_735_995" style="mask-type:alpha" maskUnits="userSpaceOnUse" x="0" y="0" width="24" height="25">
<rect x="24" y="24.2812" width="24" height="24" transform="rotate(-180 24 24.2812)" fill="#D9D9D9"/>
</mask>
<g mask="url(#mask0_735_995)">
<path d="M12 12.9562L9.625 10.5812C9.44167 10.3979 9.2125 10.3062 8.9375 10.3062C8.6625 10.3062 8.425 10.3979 8.225 10.5812C8.025 10.7812 7.925 11.0187 7.925 11.2937C7.925 11.5687 8.025 11.8062 8.225 12.0062L11.3 15.0812C11.5 15.2812 11.7333 15.3812 12 15.3812C12.2667 15.3812 12.5 15.2812 12.7 15.0812L15.8 11.9812C16 11.7812 16.0958 11.5479 16.0875 11.2812C16.0792 11.0146 15.975 10.7812 15.775 10.5812C15.575 10.3979 15.3417 10.3021 15.075 10.2937C14.8083 10.2854 14.575 10.3812 14.375 10.5812L12 12.9562ZM12 2.28125C13.3833 2.28125 14.6833 2.54375 15.9 3.06875C17.1167 3.59375 18.175 4.30625 19.075 5.20625C19.975 6.10625 20.6875 7.16458 21.2125 8.38125C21.7375 9.59792 22 10.8979 22 12.2812C22 13.6646 21.7375 14.9646 21.2125 16.1813C20.6875 17.3979 19.975 18.4562 19.075 19.3562C18.175 20.2562 17.1167 20.9687 15.9 21.4937C14.6833 22.0187 13.3833 22.2812 12 22.2812C10.6167 22.2812 9.31667 22.0187 8.1 21.4937C6.88333 20.9687 5.825 20.2562 4.925 19.3562C4.025 18.4562 3.3125 17.3979 2.7875 16.1812C2.2625 14.9646 2 13.6646 2 12.2812C2 10.8979 2.2625 9.59791 2.7875 8.38125C3.3125 7.16458 4.025 6.10625 4.925 5.20625C5.825 4.30625 6.88333 3.59375 8.1 3.06875C9.31667 2.54375 10.6167 2.28125 12 2.28125Z" fill="#3B7BBF"/>
</g>
</svg>
