<svg width="16" height="17" viewBox="0 0 16 17" fill="none" xmlns="http://www.w3.org/2000/svg">
<mask id="mask0_807_2517" style="mask-type:alpha" maskUnits="userSpaceOnUse" x="0" y="0" width="16" height="17">
<rect y="0.5" width="16" height="16" fill="#D9D9D9"/>
</mask>
<g mask="url(#mask0_807_2517)">
<path d="M7.99935 15.1673C7.71046 15.1673 7.44935 15.0979 7.21602 14.959C6.98268 14.8201 6.79935 14.634 6.66602 14.4007C6.29935 14.4007 5.98546 14.2701 5.72435 14.009C5.46324 13.7479 5.33268 13.434 5.33268 13.0673V10.7007C4.67713 10.2673 4.15213 9.6951 3.75768 8.98398C3.36324 8.27287 3.16602 7.50065 3.16602 6.66732C3.16602 5.32287 3.63546 4.18121 4.57435 3.24232C5.51324 2.30343 6.6549 1.83398 7.99935 1.83398C9.34379 1.83398 10.4855 2.30343 11.4243 3.24232C12.3632 4.18121 12.8327 5.32287 12.8327 6.66732C12.8327 7.52287 12.6355 8.30065 12.241 9.00065C11.8466 9.70065 11.3216 10.2673 10.666 10.7007V13.0673C10.666 13.434 10.5355 13.7479 10.2743 14.009C10.0132 14.2701 9.69935 14.4007 9.33268 14.4007C9.19935 14.634 9.01602 14.8201 8.78268 14.959C8.54935 15.0979 8.28824 15.1673 7.99935 15.1673ZM6.66602 13.0673H9.33268V12.4673H6.66602V13.0673ZM6.66602 11.8007H9.33268V11.1673H6.66602V11.8007ZM6.53268 9.83398H7.49935V8.03398L6.03268 6.56732L6.73268 5.86732L7.99935 7.13398L9.26602 5.86732L9.96601 6.56732L8.49935 8.03398V9.83398H9.46602C10.066 9.54509 10.5549 9.1201 10.9327 8.55898C11.3105 7.99787 11.4993 7.36732 11.4993 6.66732C11.4993 5.68954 11.1605 4.86176 10.4827 4.18398C9.8049 3.50621 8.97713 3.16732 7.99935 3.16732C7.02157 3.16732 6.19379 3.50621 5.51602 4.18398C4.83824 4.86176 4.49935 5.68954 4.49935 6.66732C4.49935 7.36732 4.68824 7.99787 5.06602 8.55898C5.44379 9.1201 5.93268 9.54509 6.53268 9.83398Z" fill="#8C7B35"/>
</g>
</svg>
